<?xml version="1.0"?>
<svg xmlns="http://www.w3.org/2000/svg" height="512px" viewBox="-64 0 511 512" width="512px"><path d="m272.566406 192.800781h-160.667968c-26.351563 0-47.132813 21.402344-47.132813 47.132813v144.601562c0 25.820313 20.871094 47.132813 47.132813 47.132813h160.667968c26.351563 0 47.132813-21.402344 47.132813-47.132813v-144.601562c0-25.824219-20.867188-47.132813-47.132813-47.132813zm0 30c9.445313 0 17.132813 7.6875 17.132813 17.132813 0 9.449218-7.6875 17.132812-17.132813 17.132812-9.449218 0-17.132812-7.683594-17.132812-17.132812 0-9.445313 7.683594-17.132813 17.132812-17.132813zm-160.667968 0h116.769531c-2.082031 5.3125-3.234375 11.089844-3.234375 17.132813 0 25.988281 21.144531 47.132812 47.132812 47.132812 6.042969 0 11.820313-1.152344 17.132813-3.238281v48.425781l-22.59375-22.59375c-5.855469-5.859375-15.359375-5.851562-21.210938 0l-37.59375 37.59375-53.660156-53.660156c-5.859375-5.855469-15.355469-5.855469-21.214844 0l-38.660156 38.660156v-92.320312c0-9.355469 7.5625-17.132813 17.132813-17.132813zm160.667968 178.867188h-160.667968c-9.355469 0-17.132813-7.566407-17.132813-17.136719v-9.851562l49.269531-49.269532 53.660156 53.660156c5.855469 5.859376 15.359376 5.855469 21.210938 0l37.59375-37.59375 33.199219 33.203126v9.851562c0 9.359375-7.5625 17.136719-17.132813 17.136719zm0 0" fill="#e55a57"/><path d="m336.832031 0h-224.933593c-3.976563 0-7.792969 1.582031-10.605469 4.394531l-96.398438 96.398438c-2.8125 2.8125-4.394531 6.628906-4.394531 10.605469v353.46875c0 25.988281 21.144531 47.132812 47.132812 47.132812h289.199219c25.914063 0 47.132813-20.953125 47.132813-47.132812v-417.734376c0-25.914062-20.949219-47.132812-47.132813-47.132812zm-223.867187 35.144531v60.1875c0 9.449219-7.683594 17.132813-17.132813 17.132813h-60.1875zm241 429.722657c0 9.332031-7.542969 17.132812-17.132813 17.132812h-289.199219c-9.445312 0-17.132812-7.6875-17.132812-17.132812v-322.398438h65.332031c25.988281 0 47.132813-21.144531 47.132813-47.132812v-65.335938h193.867187c9.335938 0 17.132813 7.546875 17.132813 17.132812zm0 0" fill="#e55a57"/></svg>
