<?xml version="1.0"?>
<svg xmlns="http://www.w3.org/2000/svg" height="512px" viewBox="-64 0 511 512" width="512px"><path d="m248.152344 291.339844-80.335938-48.203125c-9.984375-5.988281-22.71875 1.21875-22.71875 12.863281v96.398438c0 11.53125 12.613282 18.925781 22.71875 12.863281l80.335938-48.199219c9.703125-5.824219 9.691406-19.910156 0-25.722656zm-73.054688 34.566406v-43.414062l36.179688 21.707031zm0 0" fill="#e55a57"/><path d="m192.234375 176.734375c-70.285156 0-127.46875 57.179687-127.46875 127.464844 0 70.285156 57.183594 127.46875 127.46875 127.46875s127.464844-57.183594 127.464844-127.46875c0-70.285157-57.179688-127.464844-127.464844-127.464844zm0 224.933594c-53.746094 0-97.46875-43.726563-97.46875-97.46875 0-53.742188 43.722656-97.464844 97.46875-97.464844 53.742187 0 97.464844 43.722656 97.464844 97.464844 0 53.742187-43.722657 97.46875-97.464844 97.46875zm0 0" fill="#e55a57"/><path d="m336.832031 0h-224.933593c-3.976563 0-7.792969 1.582031-10.605469 4.394531l-96.398438 96.398438c-2.8125 2.8125-4.394531 6.628906-4.394531 10.605469v353.46875c0 25.988281 21.144531 47.132812 47.132812 47.132812h289.199219c25.914063 0 47.132813-20.953125 47.132813-47.132812v-417.734376c0-25.914062-20.949219-47.132812-47.132813-47.132812zm-223.867187 35.144531v60.1875c0 9.449219-7.683594 17.132813-17.132813 17.132813h-60.1875zm241 429.722657c0 9.332031-7.542969 17.132812-17.132813 17.132812h-289.199219c-9.445312 0-17.132812-7.6875-17.132812-17.132812v-322.398438h65.332031c25.988281 0 47.132813-21.144531 47.132813-47.132812v-65.335938h193.867187c9.332031 0 17.132813 7.546875 17.132813 17.132812zm0 0" fill="#e55a57"/></svg>
